<svg id="Layer_1" data-name="Layer 1" xmlns="http://www.w3.org/2000/svg" viewBox="0 0 500 500">
<defs>
    <style>
    .cls-1{
        fill:#b3814b;
    }
    .cls-2{
        fill:#513b2c;
    }
    .cls-3{
        opacity:0.2;
    }
    .cls-4{
        fill:none;
        stroke:#000;
        stroke-linecap:round;
        stroke-linejoin:round;
        stroke-width:20px;
    }</style>
</defs>
<title>cookie</title><circle class="cls-1" cx="250.22" cy="250.06" r="239.28"/><circle class="cls-2" cx="193.44" cy="253.01" r="62.88"/><circle class="cls-2" cx="223.81" cy="87.41" r="43.7"/><circle class="cls-2" cx="267.51" cy="389.77" r="37.3"/><circle class="cls-2" cx="355.66" cy="236.52" r="37.3"/><path class="cls-2" d="M11,255.51a43.7,43.7,0,1,0,21.31-81.85,44,44,0,0,0-9.24,1,239.3,239.3,0,0,0-12.14,75.42C10.94,251.88,11,253.69,11,255.51Z"/><path class="cls-2" d="M101.84,363.22a54.43,54.43,0,0,0-46.36,25.89,240.31,240.31,0,0,0,80.29,71.12,54.43,54.43,0,0,0-33.93-97Z"/><path class="cls-2" d="M466.57,147.76A240.08,240.08,0,0,0,399,62.63a54.44,54.44,0,0,0,67.62,85.13Z"/><path class="cls-2" d="M435.05,323.5A54.46,54.46,0,0,0,411.32,427a239.59,239.59,0,0,0,61.27-88.43A54.19,54.19,0,0,0,435.05,323.5Z"/><path class="cls-3" d="M393.36,58.3a238.22,238.22,0,0,1,48,143.8c0,132.15-107.13,239.28-239.28,239.28A238.24,238.24,0,0,1,59,393.86a238.88,238.88,0,0,0,191.25,95.47c132.15,0,239.27-107.12,239.27-239.27A238.93,238.93,0,0,0,393.36,58.3Z"/><circle class="cls-4" cx="250.22" cy="250.06" r="239.28"/><circle class="cls-4" cx="193.44" cy="253.01" r="62.88"/><circle class="cls-4" cx="223.81" cy="87.41" r="43.7"/><circle class="cls-4" cx="267.51" cy="389.77" r="37.3"/><circle class="cls-4" cx="355.66" cy="236.52" r="37.3"/><path class="cls-4" d="M11,255.51a43.7,43.7,0,1,0,21.31-81.85,44,44,0,0,0-9.24,1,239.3,239.3,0,0,0-12.14,75.42C10.94,251.88,11,253.69,11,255.51Z"/><path class="cls-4" d="M101.84,363.22a54.43,54.43,0,0,0-46.36,25.89,240.31,240.31,0,0,0,80.29,71.12,54.43,54.43,0,0,0-33.93-97Z"/><path class="cls-4" d="M466.57,147.76A240.08,240.08,0,0,0,399,62.63a54.44,54.44,0,0,0,67.62,85.13Z"/><path class="cls-4" d="M435.05,323.5A54.46,54.46,0,0,0,411.32,427a239.59,239.59,0,0,0,61.27-88.43A54.19,54.19,0,0,0,435.05,323.5Z"/></svg>